<svg xmlns="http://www.w3.org/2000/svg" width="287" height="126" fill="none" xmlns:v="https://vecta.io/nano"><g fill="#FFF"><path fill-opacity=".01" d="M0 0h283v87H0z"/><path d="M68.468 38.57c-13.842-8.301-36.67-9.066-49.884-5.017-.506.153-1.038.205-1.564.152s-1.037-.21-1.502-.461a4.01 4.01 0 0 1-1.21-1.002c-.333-.41-.582-.883-.731-1.39a4.06 4.06 0 0 1 .294-3.08c.501-.948 1.356-1.659 2.38-1.98 15.166-4.651 40.382-3.752 56.317 5.8a4.08 4.08 0 0 1 1.404 5.557 3.99 3.99 0 0 1-2.455 1.861 3.99 3.99 0 0 1-3.049-.44zm-.454 12.296c-.227.377-.527.706-.882.967a3.33 3.33 0 0 1-2.495.603 3.33 3.33 0 0 1-1.227-.457c-11.538-7.167-29.135-9.24-42.788-5.053-.422.127-.866.17-1.305.126s-.865-.175-1.253-.385-.731-.494-1.009-.836a3.34 3.34 0 0 1-.61-1.159 3.39 3.39 0 0 1 .249-2.566c.418-.789 1.13-1.382 1.982-1.65 15.594-4.781 34.983-2.465 48.237 5.764a3.4 3.4 0 0 1 1.099 4.647zm-5.254 11.807c-.18.303-.419.566-.703.776a2.66 2.66 0 0 1-.948.444c-.343.084-.698.098-1.046.043a2.66 2.66 0 0 1-.982-.364c-10.086-6.224-22.774-7.631-37.722-4.18-.344.078-.7.087-1.048.027s-.68-.188-.978-.377a2.67 2.67 0 0 1-1.178-1.683 2.7 2.7 0 0 1 .338-2.034c.377-.607.98-1.039 1.676-1.203 16.356-3.777 30.386-2.15 41.706 4.836a2.72 2.72 0 0 1 1.206 1.676c.166.695.051 1.428-.32 2.039zM43.07.123C19.353.123.131 19.539.131 43.489s19.222 43.366 42.94 43.366 42.94-19.412 42.94-43.366S66.784.123 43.067.123h.004zm73.882 40.034c-7.413-1.787-8.734-3.038-8.734-5.673 0-2.487 2.323-4.161 5.769-4.161 3.342 0 6.658 1.272 10.134 3.89.105.08.236.109.366.091.064-.01.126-.033.18-.067a.48.48 0 0 0 .14-.132l3.621-5.155c.071-.102.101-.228.085-.351a.5.5 0 0 0-.176-.316c-4.136-3.353-8.795-4.981-14.241-4.981-8.004 0-13.595 4.85-13.595 11.792 0 7.446 4.826 10.078 13.16 12.115 7.093 1.649 8.29 3.034 8.29 5.506 0 2.737-2.42 4.441-6.316 4.441-4.329 0-7.859-1.472-11.807-4.926a.47.47 0 0 0-.166-.096.48.48 0 0 0-.374.03.47.47 0 0 0-.149.121l-4.06 4.879a.49.49 0 0 0 .047.681c4.597 4.143 10.246 6.329 16.342 6.329 8.628 0 14.2-4.76 14.2-12.126 0-6.228-3.682-9.672-12.716-11.89zm38.495 8.345c0 5.256-3.207 8.928-7.801 8.928-4.535 0-7.96-3.835-7.96-8.928s3.421-8.925 7.964-8.925c4.517 0 7.797 3.752 7.797 8.925zm-6.262-15.733c-3.737 0-6.807 1.49-9.336 4.539v-3.429a.49.49 0 0 0-.482-.493h-6.64a.49.49 0 0 0-.345.146.49.49 0 0 0-.105.16c-.024.059-.037.123-.036.188v38.113a.49.49 0 0 0 .486.493h6.64a.49.49 0 0 0 .482-.493V59.961c2.533 2.867 5.599 4.267 9.336 4.267 6.948 0 13.979-5.401 13.979-15.725s-7.031-15.733-13.979-15.733zm32.008 24.715c-4.761 0-8.345-3.861-8.345-8.983 0-5.14 3.461-8.874 8.236-8.874 4.789 0 8.399 3.864 8.399 8.99 0 5.137-3.483 8.867-8.29 8.867zm0-24.712c-8.948 0-15.957 6.96-15.957 15.841 0 8.787 6.962 15.674 15.848 15.674 8.976 0 16.007-6.935 16.007-15.787 0-8.82-6.98-15.733-15.898-15.733v.004zm35.005.613h-7.304v-7.54c.001-.064-.011-.128-.035-.188a.49.49 0 0 0-.105-.16c-.045-.046-.099-.082-.158-.107a.49.49 0 0 0-.188-.038h-6.64c-.128.002-.251.054-.342.146a.49.49 0 0 0-.14.344v7.544h-3.193a.49.49 0 0 0-.187.039c-.059.025-.112.062-.157.108s-.08.1-.104.16a.48.48 0 0 0-.035.187v5.764a.49.49 0 0 0 .483.489h3.193v14.91c0 6.025 2.967 9.081 8.823 9.081 2.381 0 4.354-.497 6.219-1.566.075-.043.137-.104.181-.179a.49.49 0 0 0 .066-.245v-5.488c0-.083-.022-.165-.062-.238s-.1-.134-.17-.178-.151-.069-.233-.073-.165.014-.239.051a8.27 8.27 0 0 1-3.897.95c-2.129 0-3.084-.979-3.084-3.165V40.129h7.308c.064 0 .127-.014.187-.039a.49.49 0 0 0 .263-.267.5.5 0 0 0 .036-.188v-5.764a.5.5 0 0 0-.036-.187c-.024-.059-.06-.113-.105-.159a.49.49 0 0 0-.159-.106c-.059-.025-.122-.037-.186-.037v.004zm25.451.029v-.924c0-2.726 1.034-3.944 3.356-3.944 1.383 0 2.497.279 3.741.7.073.023.151.029.227.016a.49.49 0 0 0 .209-.089c.063-.046.114-.105.149-.175s.054-.146.054-.224v-5.648a.49.49 0 0 0-.095-.293c-.062-.085-.149-.148-.25-.179-1.786-.549-3.646-.818-5.515-.797-6.131 0-9.375 3.487-9.375 10.078v1.421h-3.189a.49.49 0 0 0-.486.489v5.793a.49.49 0 0 0 .486.493h3.193v22.997c0 .272.214.489.482.489h6.64c.265 0 .482-.217.482-.489V40.129h6.201l9.495 22.99c-1.078 2.418-2.141 2.9-3.585 2.9-1.172 0-2.402-.355-3.664-1.051a.5.5 0 0 0-.189-.057c-.066-.006-.133.001-.196.021s-.121.057-.171.103a.51.51 0 0 0-.116.162l-2.249 4.984a.49.49 0 0 0 .207.634 13.87 13.87 0 0 0 7.093 1.834c4.898 0 7.608-2.305 9.999-8.511l11.516-30.055c.029-.075.04-.155.031-.235s-.037-.156-.082-.222-.103-.119-.172-.157-.148-.057-.227-.057h-6.911a.49.49 0 0 0-.283.092c-.083.059-.145.142-.178.238l-7.079 20.423-7.753-20.438a.49.49 0 0 0-.177-.229c-.082-.056-.178-.087-.277-.086h-11.342v.004zm-14.756-.029h-6.639a.49.49 0 0 0-.483.493v29.25c0 .272.218.489.486.489h6.64c.265 0 .483-.217.483-.489V33.875c0-.129-.051-.253-.143-.345a.49.49 0 0 0-.344-.145zm-3.287-13.318a4.79 4.79 0 0 0-3.375 1.419 4.78 4.78 0 0 0-1.385 3.387 4.78 4.78 0 0 0 .355 1.833c.238.582.588 1.111 1.03 1.558s.968.802 1.548 1.046 1.202.371 1.831.374a4.79 4.79 0 0 0 3.377-1.421c.892-.902 1.39-2.121 1.383-3.39 0-2.657-2.133-4.807-4.76-4.807h-.004zm58.433 16.229h-1.216v1.566h1.216c.605 0 .968-.301.968-.783 0-.511-.363-.783-.968-.783zm.787 2.233l1.324 1.87h-1.117l-1.187-1.715h-1.023V40.4h-.932v-4.955h2.184c1.139 0 1.89.591 1.89 1.581.016.344-.089.683-.297.958s-.506.468-.842.546zm-1.034-4.731c-2.395 0-4.205 1.921-4.205 4.274s1.799 4.245 4.179 4.245c2.395 0 4.209-1.921 4.209-4.274s-1.803-4.245-4.183-4.245zm-.026 8.99c-.617-.001-1.227-.125-1.797-.363a4.68 4.68 0 0 1-1.519-1.025 4.67 4.67 0 0 1-1.009-1.529 4.66 4.66 0 0 1-.344-1.799c0-2.588 2.068-4.745 4.695-4.745.617.002 1.228.125 1.797.363s1.086.586 1.52 1.025a4.69 4.69 0 0 1 1.009 1.529 4.66 4.66 0 0 1 .343 1.799c0 2.588-2.068 4.749-4.695 4.749v-.004z"/></g><path stroke="#FFF" stroke-width="5" d="M0 123.5h283"/></svg>